<svg width="1024" height="1024" viewBox="0 0 1024 1024" fill="none" xmlns="http://www.w3.org/2000/svg">
  <rect width="1024" height="1024" rx="224" fill="#0F172A"/>
  <circle cx="810" cy="190" r="210" fill="#1D4ED8" opacity="0.72"/>
  <circle cx="210" cy="815" r="250" fill="#0F766E" opacity="0.58"/>
  <path d="M186 693C274 599 336 638 418 548C490 469 565 306 684 271C744 253 795 274 844 318" stroke="#38BDF8" stroke-width="28" stroke-linecap="round"/>
  <path d="M190 752H836" stroke="#334155" stroke-width="16" stroke-linecap="round"/>
  <path d="M258 692V752M382 625V752M506 514V752M630 365V752M754 306V752" stroke="#64748B" stroke-width="18" stroke-linecap="round"/>
  <circle cx="258" cy="692" r="24" fill="#F8FAFC"/>
  <circle cx="382" cy="625" r="24" fill="#F8FAFC"/>
  <circle cx="506" cy="514" r="24" fill="#F8FAFC"/>
  <circle cx="630" cy="365" r="24" fill="#F8FAFC"/>
  <circle cx="754" cy="306" r="24" fill="#F8FAFC"/>
  <rect x="218" y="368" width="588" height="260" rx="54" fill="#F8FAFC"/>
  <text x="512" y="545" text-anchor="middle" font-family="Inter, Arial, sans-serif" font-size="178" font-weight="900" fill="#0F172A" letter-spacing="0">DM</text>
  <text x="512" y="865" text-anchor="middle" font-family="Inter, Arial, sans-serif" font-size="46" font-weight="800" fill="#E2E8F0" letter-spacing="3">ANALYTICS • AI • BI</text>
</svg>

